HIERARCHY
ROOT Hips
{
	OFFSET 49.160702 6.728782 49.779400
	CHANNELS 6 Xposition Yposition Zposition Xrotation Yrotation Zrotation
	JOINT spine
	{
		OFFSET 0.000000 -0.359108 6.244789
		CHANNELS 3 Xrotation Yrotation Zrotation
		JOINT spine1
		{
			OFFSET 0.000000 -0.000001 9.069408
			CHANNELS 3 Xrotation Yrotation Zrotation
			JOINT spine2
			{
				OFFSET 0.000000 -0.000001 8.690140
				CHANNELS 3 Xrotation Yrotation Zrotation
				JOINT Neck
				{
					OFFSET 0.000000 -1.063724 22.311203
					CHANNELS 3 Xrotation Yrotation Zrotation
					JOINT Head
					{
						OFFSET 0.000000 -0.000001 6.740807
						CHANNELS 3 Xrotation Yrotation Zrotation
						End Site
						{
							OFFSET 0.000000 5.380968 16.316498
						}
					}
				}
				JOINT RightShoulder
				{
					OFFSET -3.659161 0.509512 9.384682
					CHANNELS 3 Xrotation Yrotation Zrotation
					JOINT RightArm
					{
						OFFSET 0.000000 -0.000002 12.308899
						CHANNELS 3 Xrotation Yrotation Zrotation
						JOINT RightArmRoll
						{
							OFFSET 0.000000 -0.000001 6.213753
							CHANNELS 3 Xrotation Yrotation Zrotation
							JOINT RightForeArm
							{
								OFFSET 0.000000 -0.000003 18.098495
								CHANNELS 3 Xrotation Yrotation Zrotation
								JOINT RightForeArmRoll
								{
									OFFSET 0.000000 -0.000001 6.972794
									CHANNELS 3 Xrotation Yrotation Zrotation
									JOINT RightHand
									{
										OFFSET 0.000000 -0.000002 13.992905
										CHANNELS 3 Xrotation Yrotation Zrotation
										End Site
										{
											OFFSET 0.000000 0.000000 0.100006
										}
									}
								}
							}
						}
					}
				}
				JOINT LeftShoulder
				{
					OFFSET 3.659161 0.509512 9.384682
					CHANNELS 3 Xrotation Yrotation Zrotation
					JOINT LeftArm
					{
						OFFSET 0.000000 -0.000002 12.308899
						CHANNELS 3 Xrotation Yrotation Zrotation
						JOINT LeftArmRoll
						{
							OFFSET 0.000000 -0.000001 6.213753
							CHANNELS 3 Xrotation Yrotation Zrotation
							JOINT LeftForeArm
							{
								OFFSET 0.000000 -0.000003 18.098495
								CHANNELS 3 Xrotation Yrotation Zrotation
								JOINT LeftForeArmRoll
								{
									OFFSET 0.000000 -0.000001 6.972801
									CHANNELS 3 Xrotation Yrotation Zrotation
									JOINT LeftHand
									{
										OFFSET 0.000000 -0.000002 13.992897
										CHANNELS 3 Xrotation Yrotation Zrotation
										End Site
										{
											OFFSET 0.000000 0.000000 0.100006
										}
									}
								}
							}
						}
					}
				}
			}
		}
	}
	JOINT RightUpLeg
	{
		OFFSET -5.535149 0.851454 -1.014999
		CHANNELS 3 Xrotation Yrotation Zrotation
		JOINT RightUpLegRoll
		{
			OFFSET 0.000000 -0.000002 16.407497
			CHANNELS 3 Xrotation Yrotation Zrotation
			JOINT RightLeg
			{
				OFFSET 0.000000 0.000003 -20.318100
				CHANNELS 3 Xrotation Yrotation Zrotation
				JOINT RightLegRoll
				{
					OFFSET 0.000000 -0.000003 20.384598
					CHANNELS 3 Xrotation Yrotation Zrotation
					JOINT RightFoot
					{
						OFFSET 0.000000 -0.000003 16.966805
						CHANNELS 3 Xrotation Yrotation Zrotation
						JOINT RightToeBase
						{
							OFFSET 0.000000 -0.000002 14.183403
							CHANNELS 3 Xrotation Yrotation Zrotation
							End Site
							{
								OFFSET 0.006012 0.791745 6.868889
							}
						}
					}
				}
			}
		}
	}
	JOINT LeftUpLeg
	{
		OFFSET 5.535149 0.851454 -1.014999
		CHANNELS 3 Xrotation Yrotation Zrotation
		JOINT LeftUpLegRoll
		{
			OFFSET 0.000000 -0.000002 16.407597
			CHANNELS 3 Xrotation Yrotation Zrotation
			JOINT LeftLeg
			{
				OFFSET 0.000000 -0.000003 20.318100
				CHANNELS 3 Xrotation Yrotation Zrotation
				JOINT LeftLegRoll
				{
					OFFSET 0.000000 -0.000003 20.573097
					CHANNELS 3 Xrotation Yrotation Zrotation
					JOINT LeftFoot
					{
						OFFSET 0.000000 -0.000003 16.778297
						CHANNELS 3 Xrotation Yrotation Zrotation
						JOINT LeftToeBase
						{
							OFFSET 0.000000 -0.000002 14.183395
							CHANNELS 3 Xrotation Yrotation Zrotation
							End Site
							{
								OFFSET -0.026943 0.791745 6.868896
							}
						}
					}
				}
			}
		}
	}
}
MOTION
Frames: 6
Frame Time: 0.041667
49.776596 -1.552664 61.925098 44.134070 2.534949 -5.357743 1.472319 -0.924153 0.110143 6.950247 -1.842699 0.253742 8.595678 -1.839527 0.275806 29.282998 8.094332 -3.723712 4.279347 -8.646862 -2.328324 -5.260759 -39.637941 -4.183592 -33.392484 -141.108976 -67.336035 -0.000002 0.000001 0.000002 72.008444 -6.128994 1.063823 -0.000001 0.000001 -2.999999 -5.000227 -7.998974 0.000140 -1.697034 67.634364 2.901286 -71.863125 113.965518 100.265251 0.000002 -0.000000 0.000010 77.418459 5.602869 0.849036 0.000001 -0.000011 3.000022 -5.000155 8.000081 -0.000022 -107.853086 -189.895993 1.889446 -179.999991 0.000005 -0.469987 106.669687 -2.831875 -2.940019 -0.000003 -0.000001 1.382090 74.598254 7.715476 -0.793953 25.514595 -7.348309 0.007436 -109.420730 178.847493 6.336829 -0.000006 -0.000004 -0.670497 -88.036781 -2.592046 -1.343281 0.000001 0.000001 -2.425120 78.250540 -6.439075 -2.855234 29.118811 7.077741 -4.570983 
49.782597 -1.517005 61.862900 44.071109 2.571141 -5.380879 1.469827 -0.925544 0.108830 6.945298 -1.845309 0.251772 8.590743 -1.842162 0.273868 29.290334 8.068081 -3.708721 4.257554 -8.619829 -2.318726 -5.243365 -39.672300 -4.164762 -33.435210 -141.065058 -67.416658 -0.000001 -0.000001 0.000002 72.046140 -6.122918 1.056851 -0.000005 -0.000000 -3.000000 -5.000225 -7.998969 0.000141 -1.597911 67.625751 2.789036 -71.872749 113.867784 100.272347 0.000003 -0.000002 0.000011 77.491734 5.549478 0.896140 -0.000003 -0.000007 3.000018 -5.000155 8.000083 -0.000023 -107.921825 -189.895433 1.892364 -179.999991 0.000005 -0.472992 106.547358 -2.796504 -2.922270 -0.000002 -0.000001 1.379849 74.511968 7.691815 -0.705360 25.588351 -7.348420 0.016914 -109.472660 178.834119 6.351516 -0.000006 -0.000004 -0.671644 -88.123265 -2.619214 -1.370193 -0.000000 0.000001 -2.429090 78.237604 -6.439878 -2.853752 29.084417 7.079774 -4.577223 
49.780598 -1.479268 61.798698 44.007107 2.608295 -5.403929 1.466812 -0.927080 0.107184 6.939316 -1.848281 0.249031 8.584775 -1.845178 0.271164 29.307129 8.046116 -3.694675 4.228191 -8.597770 -2.309165 -5.217041 -39.706355 -4.134034 -33.477233 -141.018954 -67.489127 -0.000001 0.000000 0.000000 72.081787 -6.117692 1.050433 -0.000004 -0.000000 -2.999998 -5.000224 -7.998976 0.000139 -1.484406 67.623230 2.661254 -71.897898 113.762620 100.288836 0.000003 -0.000001 0.000009 77.568614 5.496040 0.944140 -0.000002 -0.000009 3.000018 -5.000154 8.000080 -0.000026 -107.991055 -189.895528 1.882818 -179.999991 0.000005 -0.474986 106.418391 -2.748352 -2.896424 -0.000003 -0.000001 1.376590 74.414959 7.660528 -0.592520 25.676134 -7.348542 0.028194 -109.521107 178.819420 6.367057 -0.000005 -0.000004 -0.672759 -88.203977 -2.646710 -1.397208 -0.000001 0.000001 -2.432770 78.221956 -6.440749 -2.852131 29.049307 7.081898 -4.583742 
49.755997 -1.340199 61.949596 43.942360 2.646344 -5.426719 1.463311 -0.928746 0.105252 6.932397 -1.851593 0.245621 8.577853 -1.848524 0.267793 29.331978 8.027367 -3.681474 4.192223 -8.579658 -2.299732 -5.183152 -39.740445 -4.093272 -33.518843 -140.970760 -67.554840 0.000001 0.000000 0.000001 72.115692 -6.113256 1.044590 -0.000001 0.000001 -3.000001 -5.000224 -7.998976 0.000141 -1.359363 67.625614 2.521057 -71.936474 113.651773 100.313711 -0.000001 -0.000000 0.000009 77.648671 5.442776 0.992574 -0.000000 -0.000012 3.000021 -5.000154 8.000082 -0.000020 -108.060573 -189.896034 1.864161 -179.999991 0.000005 -0.477992 106.283932 -2.689369 -2.863165 -0.000003 -0.000001 1.372470 74.309159 7.622725 -0.459634 25.775553 -7.348659 0.040968 -109.566384 178.803766 6.384457 -0.000005 -0.000004 -0.673845 -88.279690 -2.674415 -1.424439 0.000001 0.000001 -2.436210 78.203965 -6.441699 -2.850254 29.013496 7.084103 -4.590354 
49.752895 -1.307364 61.892502 43.876961 2.685219 -5.449066 1.459393 -0.930524 0.103078 6.924646 -1.855188 0.241636 8.570100 -1.852171 0.263852 29.363475 8.010746 -3.669011 4.150673 -8.564453 -2.290534 -5.143085 -39.774801 -4.044346 -33.560452 -140.920627 -67.615246 0.000000 -0.000001 0.000003 72.148121 -6.109515 1.039154 -0.000004 0.000003 -3.000002 -5.000223 -7.998975 0.000139 -1.225684 67.631884 2.371551 -71.985297 113.536684 100.344795 -0.000002 0.000001 0.000010 77.731412 5.389886 1.041497 -0.000004 -0.000009 3.000018 -5.000156 8.000082 -0.000021 -108.130022 -189.896813 1.836252 -179.999991 0.000005 -0.479987 106.144848 -2.621997 -2.824050 -0.000003 -0.000001 1.367660 74.196584 7.579342 -0.310338 25.884156 -7.348759 0.054916 -109.609202 178.787483 6.401868 -0.000007 -0.000004 -0.674906 -88.351195 -2.702207 -1.451807 0.000002 0.000001 -2.439430 78.183857 -6.442753 -2.848308 28.977498 7.086359 -4.596956 
49.780697 -1.386907 61.595001 43.811316 2.724833 -5.470799 1.455101 -0.932395 0.100711 6.916149 -1.859023 0.237175 8.561611 -1.856060 0.259437 29.400331 7.995156 -3.657193 4.104536 -8.551137 -2.281686 -5.098242 -39.809655 -3.989129 -33.602669 -140.867775 -67.672353 -0.000001 -0.000001 0.000001 72.179486 -6.106343 1.034064 -0.000005 -0.000002 -3.000002 -5.000228 -7.998970 0.000141 -1.086237 67.640770 2.215863 -72.041844 113.418918 100.380626 -0.000001 0.000001 0.000008 77.816099 5.337688 1.090483 -0.000000 -0.000008 3.000020 -5.000156 8.000078 -0.000022 -108.199349 -189.897673 1.802447 -179.999991 0.000005 -0.482991 106.002521 -2.548117 -2.780770 -0.000004 -0.000001 1.362331 74.079330 7.531520 -0.148837 25.999627 -7.348836 0.069758 -109.649904 178.770953 6.420315 -0.000006 -0.000004 -0.675947 -88.419148 -2.730138 -1.479222 0.000001 0.000000 -2.442450 78.162158 -6.443805 -2.846349 28.941489 7.088666 -4.603394 
